<?xml version="1.0" standalone="no"?>
<!DOCTYPE svg PUBLIC "-//W3C//DTD SVG 20010904//EN"
 "http://www.w3.org/TR/2001/REC-SVG-20010904/DTD/svg10.dtd">
<svg version="1.0" xmlns="http://www.w3.org/2000/svg"
 width="1280.000000pt" height="674.000000pt" viewBox="0 0 1280.000000 674.000000"
 preserveAspectRatio="xMidYMid meet">
<g transform="translate(0.000000,674.000000) scale(0.100000,-0.100000)"
fill="#000000" stroke="none">
<path d="M7465 6510 c-115 -33 -227 -59 -248 -60 -47 0 -81 -31 -96 -86 -7
-26 -11 -242 -11 -642 l0 -602 -22 -9 c-29 -12 -506 -54 -518 -46 -6 4 -10
139 -10 347 0 329 1 341 21 366 l20 27 -20 16 c-23 19 -60 14 -68 -8 -3 -7 3
-23 13 -34 18 -20 19 -45 22 -338 2 -174 0 -331 -3 -348 -5 -26 -12 -34 -33
-38 -113 -21 -212 -53 -300 -96 -162 -78 -280 -205 -322 -344 -7 -23 -15 -153
-20 -305 -8 -265 -23 -425 -41 -446 -5 -7 -35 -15 -67 -18 -895 -104 -1873
-261 -2477 -397 -71 -16 -145 -29 -164 -29 -18 0 -72 -13 -120 -29 -47 -16
-156 -48 -241 -71 -391 -106 -722 -236 -892 -351 -31 -22 -61 -39 -66 -39 -5
0 -23 18 -41 40 -18 22 -51 50 -74 61 -51 27 -420 146 -812 264 -178 54 -213
65 -270 89 -43 19 -78 26 -126 26 -83 0 -124 -24 -159 -95 l-25 -50 1 -480 c0
-264 6 -696 13 -960 l13 -480 32 -70 c58 -123 140 -215 232 -258 40 -18 66
-22 140 -22 l92 1 428 212 c236 116 447 226 469 245 28 24 39 41 40 63 0 22 5
30 23 32 13 2 108 -41 245 -111 300 -156 525 -235 1041 -367 1783 -457 4629
-823 6391 -821 764 1 1419 134 1945 396 613 304 978 736 1102 1301 32 147 32
399 0 542 -156 695 -651 1250 -1346 1507 -101 37 -356 106 -463 125 -282 49
-1019 73 -1892 61 -234 -3 -285 -1 -292 10 -5 8 -9 129 -9 269 0 241 -2 259
-24 321 -63 178 -197 293 -371 319 -38 5 -217 10 -396 10 -289 0 -328 2 -333
16 -9 25 -7 1047 3 1063 7 11 34 10 162 -7 260 -35 244 -34 267 -9 45 48 73
189 53 264 -21 77 -90 134 -158 132 -15 0 -122 -27 -238 -59z m-6403 -3743
c127 -43 310 -123 336 -148 18 -16 21 -37 27 -191 4 -95 5 -186 4 -203 l-4
-30 -124 -3 c-69 -1 -132 0 -140 4 -9 4 -22 6 -29 5 -7 -1 -16 8 -22 21 -6 17
-9 19 -9 6 -1 -31 -42 -68 -75 -69 l-31 -1 34 -8 c35 -8 70 -43 71 -70 1 -9 5
-5 10 8 6 13 15 22 22 21 7 -1 20 1 29 5 8 4 73 5 145 4 l129 -3 9 -169 c6
-109 5 -175 -1 -185 -14 -23 -410 -238 -471 -257 -65 -19 -111 -12 -143 22
l-24 26 -5 596 c-6 638 -6 631 43 652 35 15 108 4 219 -33z"/>
</g>
</svg>
