<?xml version="1.0" encoding="utf-8"?>
<!-- Generator: Adobe Illustrator 20.1.0, SVG Export Plug-In . SVG Version: 6.00 Build 0)  -->
<svg version="1.1" id="Layer_1" xmlns="http://www.w3.org/2000/svg" xmlns:xlink="http://www.w3.org/1999/xlink" x="0px" y="0px"
	 viewBox="0 0 1280 674" style="enable-background:new 0 0 1280 674;" xml:space="preserve">
<style type="text/css">
	.st0{fill:#FFFFFF;}
</style>
<g transform="translate(0.000000,674.000000) scale(0.100000,-0.100000)">
	<path class="st0" d="M7465,6510c-115-33-227-59-248-60c-47,0-81-31-96-86c-7-26-11-242-11-642v-602l-22-9c-29-12-506-54-518-46
		c-6,4-10,139-10,347c0,329,1,341,21,366l20,27l-20,16c-23,19-60,14-68-8c-3-7,3-23,13-34c18-20,19-45,22-338c2-174,0-331-3-348
		c-5-26-12-34-33-38c-113-21-212-53-300-96c-162-78-280-205-322-344c-7-23-15-153-20-305c-8-265-23-425-41-446c-5-7-35-15-67-18
		c-895-104-1873-261-2477-397c-71-16-145-29-164-29c-18,0-72-13-120-29c-47-16-156-48-241-71c-391-106-722-236-892-351
		c-31-22-61-39-66-39s-23,18-41,40s-51,50-74,61c-51,27-420,146-812,264c-178,54-213,65-270,89c-43,19-78,26-126,26
		c-83,0-124-24-159-95l-25-50l1-480c0-264,6-696,13-960l13-480l32-70c58-123,140-215,232-258c40-18,66-22,140-22l92,1l428,212
		c236,116,447,226,469,245c28,24,39,41,40,63c0,22,5,30,23,32c13,2,108-41,245-111c300-156,525-235,1041-367
		c1783-457,4629-823,6391-821c764,1,1419,134,1945,396c613,304,978,736,1102,1301c32,147,32,399,0,542c-156,695-651,1250-1346,1507
		c-101,37-356,106-463,125c-282,49-1019,73-1892,61c-234-3-285-1-292,10c-5,8-9,129-9,269c0,241-2,259-24,321
		c-63,178-197,293-371,319c-38,5-217,10-396,10c-289,0-328,2-333,16c-9,25-7,1047,3,1063c7,11,34,10,162-7c260-35,244-34,267-9
		c45,48,73,189,53,264c-21,77-90,134-158,132C7688,6569,7581,6542,7465,6510z M1062,2767c127-43,310-123,336-148c18-16,21-37,27-191
		c4-95,5-186,4-203l-4-30l-124-3c-69-1-132,0-140,4c-9,4-22,6-29,5s-16,8-22,21c-6,17-9,19-9,6c-1-31-42-68-75-69l-31-1l34-8
		c35-8,70-43,71-70c1-9,5-5,10,8c6,13,15,22,22,21s20,1,29,5c8,4,73,5,145,4l129-3l9-169c6-109,5-175-1-185c-14-23-410-238-471-257
		c-65-19-111-12-143,22l-24,26l-5,596c-6,638-6,631,43,652C878,2815,951,2804,1062,2767z"/>
</g>
</svg>
